<svg xmlns="http://www.w3.org/2000/svg" enable-background="new 0 0 72 72" viewBox="0 0 72 72" id="linkedin">
  <switch>
    <g>
      <path d="M68,38.6l0,28c0,0.8-0.6,1.3-1.3,1.3H56.3c-0.7,0-1.3-0.6-1.3-1.3V44c-0.3-10.6-16.7-10.6-17,0v22.7
			c0,0.7-0.6,1.3-1.3,1.3H26.3c-0.7,0-1.3-0.6-1.3-1.3V26.3c0-0.7,0.6-1.3,1.3-1.3h11.3c0.7,0,1.3,0.6,1.3,1.3v3.2
			c3-4.7,8.5-7.7,14.5-7.2C61.8,23.1,68,30.3,68,38.6z M15.7,68H5.3C4.6,68,4,67.4,4,66.7V26.3C4,25.6,4.6,25,5.3,25h10.3
			c0.7,0,1.3,0.6,1.3,1.3v40.3C17,67.4,16.4,68,15.7,68z M17,10.5c0,3.6-2.9,6.5-6.5,6.5S4,14.1,4,10.5S6.9,4,10.5,4S17,6.9,17,10.5
			z"></path>
    </g>
  </switch>
</svg>
